<?xml version="1.0" encoding="UTF-8"?>
<svg id="_Слой_1" data-name="Слой 1" xmlns="http://www.w3.org/2000/svg" viewBox="0 0 190.94 63.68">
  <defs>
    <style>
      .cls-1 {
        fill: #ffffff;
      }
    </style>
  </defs>
  <polygon class="cls-1" points="15.46 63.46 0 63.46 52.91 0 68.38 0 15.46 63.46"/>
  <polygon class="cls-1" points="42.55 63.46 27.09 63.46 80 0 95.46 0 42.55 63.46"/>
  <polygon class="cls-1" points="88.19 63.46 76.32 63.46 76.31 38.34 87.96 24.14 88.19 63.46"/>
  <g>
    <path d="M117.09,9.13v-1.62c0-1.05-.23-1.88-.7-2.49-.47-.61-1.24-.91-2.32-.91-1.02,0-1.77.28-2.25.85-.48.57-.72,1.26-.72,2.08v1.11c0,.62.11,1.15.34,1.57.23.43.67.91,1.32,1.45.48.37,1.01.74,1.59,1.13.58.38,1.15.76,1.72,1.13.57.37,1.12.74,1.66,1.11.54.37,1.01.72,1.4,1.06.65.57,1.15,1.23,1.51,2,.35.77.53,1.8.53,3.1v1.74c0,2.21-.55,3.91-1.64,5.08-1.09,1.18-2.88,1.76-5.38,1.76s-4.28-.6-5.36-1.81c-1.08-1.2-1.62-2.97-1.62-5.29v-1.62h3.61v1.66c0,1.16.25,2.04.77,2.64.51.6,1.35.89,2.51.89.99,0,1.76-.26,2.3-.77.54-.51.81-1.33.81-2.47v-1.28c0-.43-.03-.8-.08-1.13-.06-.33-.16-.62-.3-.89-.14-.27-.33-.52-.57-.77-.24-.24-.53-.5-.87-.79-.99-.82-2-1.54-3.02-2.17-1.02-.62-1.97-1.36-2.85-2.21-.71-.74-1.25-1.5-1.62-2.3-.37-.79-.55-1.76-.55-2.89v-1.23c0-1.87.53-3.39,1.59-4.57,1.06-1.18,2.77-1.76,5.12-1.76,1.28,0,2.34.18,3.19.55.85.37,1.53.88,2.04,1.53.51.65.87,1.43,1.08,2.34.21.91.32,1.89.32,2.93v1.23h-3.57Z"/>
    <path d="M124.02,29.03V.79h10.2v3.44h-6.46v8.25h5.91v3.49h-5.91v9.61h6.8v3.44h-10.54Z"/>
    <path d="M150.39,22.22c0,2.38-.57,4.15-1.72,5.31-1.15,1.16-2.78,1.74-4.91,1.74s-3.89-.62-5.04-1.85c-1.15-1.23-1.72-3-1.72-5.29V7.81c0-2.3.59-4.08,1.76-5.36,1.18-1.28,2.83-1.91,4.95-1.91s3.77.65,4.93,1.96c1.16,1.3,1.74,3.1,1.74,5.4v14.33ZM146.64,7.55c0-1.11-.26-1.96-.77-2.55-.51-.6-1.25-.89-2.21-.89-.91,0-1.62.29-2.13.87-.51.58-.77,1.42-.77,2.53v14.88c0,2.24.98,3.36,2.93,3.36.94,0,1.66-.27,2.17-.81.51-.54.77-1.37.77-2.51V7.55Z"/>
  </g>
  <g>
    <path d="M107.22,63.68v-28.23h10.2v3.44h-6.46v8.25h5.91v3.49h-5.91v9.61h6.8v3.44h-10.54Z"/>
    <path d="M120.36,63.68v-28.23h3.83v24.75h6.97v3.49h-10.8Z"/>
    <path d="M133.79,63.68v-28.23h10.2v3.44h-6.46v8.25h5.91v3.49h-5.91v9.61h6.8v3.44h-10.54Z"/>
    <path d="M151.1,63.68l-4.8-28.23h3.78l3.57,22.28h.17l3.53-22.28h3.7l-4.76,28.23h-5.19Z"/>
    <path d="M163.47,63.68v-28.23h10.2v3.44h-6.46v8.25h5.91v3.49h-5.91v9.61h6.8v3.44h-10.54Z"/>
    <path d="M186.47,63.68l-6.46-21.85h-.17c.08,2.1.13,4.08.13,5.95v15.9h-3.36v-28.23h5.02l5.91,20.28h.17c-.08-2.66-.13-4.95-.13-6.85v-13.44h3.36v28.23h-4.46Z"/>
  </g>
</svg>

